<svg xmlns="http://www.w3.org/2000/svg" width="208.935" height="61.018" viewBox="0 0 208.935 61.018"><path d="M184.77 11.823H17.317C7.753 11.823 0 22.835 0 36.42s7.752 24.598 17.316 24.598H184.77c9.564 0 17.317-11.013 17.317-24.598s-7.754-24.597-17.316-24.597zm0 44.03H17.317c-6.886 0-12.467-8.7-12.467-19.433 0-10.73 5.58-19.43 12.466-19.43H184.77c6.886 0 12.468 8.7 12.468 19.43s-5.583 19.433-12.467 19.433z" fill="#FFF"/><path d="M14.462 36.55c0 7.153 2.883 11.84 8.715 11.84s8.715-4.687 8.715-11.84-2.884-11.84-8.715-11.84c-5.83 0-8.715 4.686-8.715 11.84zm4.998 0c0-5.38 1.218-7.406 3.717-7.406 2.5 0 3.717 2.025 3.717 7.405 0 5.382-1.217 7.407-3.717 7.407s-3.717-2.025-3.717-7.408zM50.05 34.176c.064-5.317-2.818-9.465-8.488-9.465-5.13 0-8.49 3.863-8.49 11.84 0 7.978 3.358 11.84 8.49 11.84 5.512 0 8.458-4.084 8.49-9.275H45.11c-.126 2.438-.665 4.844-3.167 4.844-2.217 0-3.928-1.964-3.928-7.41 0-5.442 1.71-7.404 3.928-7.404 1.837 0 3.04.948 3.167 5.032l4.94-.002zM76.142 39.287H72.98l1.547-7.402h.067l1.548 7.402zm.706-14.108h-4.71l-6.795 22.9h5.18l1.212-4.365h5.72l1.277 4.365h5.18l-7.064-22.9zM96.002 25.18v11.883L89.695 25.18h-4.477v22.9h4.225V35.29l6.81 12.79h4.04v-22.9M165.386 25.18v11.883L159.08 25.18h-4.48v22.9h4.227V35.29l6.81 12.79h4.038v-22.9M129.214 48.08v-4.39h-6.89v-5.332h6.89v-4.39h-6.89v-4.203h6.89v-4.587h-11.922V48.08h11.922zM136.06 29.607h1.578c1.957 0 3.094.95 3.094 2.847s-1.137 2.847-3.094 2.847h-1.578v-5.693zm-4.797 18.473h4.797v-8.92h.063l5.05 8.92h5.493l-5.744-9.236c3.377-.475 4.733-3.73 4.733-6.295 0-3.954-2.715-7.37-6.815-7.37h-7.575v22.9h-.002zM188.577 33.194c-.318-5.19-3.65-8.483-8.586-8.483-5.19 0-8.585 3.863-8.585 11.84 0 7.978 3.395 11.84 8.586 11.84 5.448 0 8.587-3.673 8.587-8.422v-4.494h-9.066v4.432h4.07c.03 1.836-.802 4.053-3.59 4.053-1.856 0-3.59-1.964-3.59-7.41 0-5.442 1.732-7.404 3.59-7.404 2.372 0 3.558 1.836 3.59 4.052h4.997v-.004zM114.85 48.08v-4.39h-6.888v-5.332h6.89v-4.39h-6.89v-4.203h6.89v-4.587h-11.924V48.08h11.923zM64.083 48.08v-4.39h-6.89v-5.332h6.89v-4.39h-6.89v-4.203h6.89v-4.587H52.16V48.08h11.923zM203.03 0c.992 0 1.96.254 2.904.764s1.682 1.236 2.21 2.184c.525.947.79 1.935.79 2.963 0 1.02-.263 1.997-.78 2.938-.52.938-1.247 1.67-2.183 2.188-.937.52-1.917.78-2.94.78-1.02 0-2.002-.26-2.938-.78-.938-.52-1.668-1.25-2.188-2.188-.52-.94-.78-1.918-.78-2.937 0-1.027.263-2.015.792-2.962s1.268-1.675 2.21-2.184C201.072.254 202.04 0 203.03 0zm0 .97c-.83 0-1.64.213-2.428.64-.785.425-1.402 1.035-1.847 1.827s-.668 1.617-.668 2.475c0 .854.22 1.67.656 2.45s1.047 1.392 1.832 1.83c.782.436 1.603.654 2.452.654.854 0 1.673-.22 2.455-.655.785-.437 1.396-1.045 1.828-1.827.434-.782.65-1.6.65-2.45 0-.857-.22-1.683-.662-2.476-.44-.792-1.06-1.4-1.848-1.828-.785-.427-1.594-.64-2.42-.64zm-2.595 8.218V2.813h2.187c.748 0 1.29.06 1.623.175.334.117.6.32.8.612.196.29.296.6.296.927 0 .462-.163.865-.49 1.208-.328.343-.765.536-1.308.578.224.095.4.208.535.34.254.254.563.68.934 1.275l.77 1.26h-1.238l-.57-1.016c-.447-.792-.8-1.29-1.06-1.493-.187-.15-.458-.222-.815-.213h-.596v2.72h-1.065zm1.062-3.594h1.242c.59 0 .997-.088 1.212-.265.217-.177.324-.41.324-.7 0-.188-.05-.355-.154-.503-.105-.146-.25-.258-.434-.33-.187-.072-.53-.11-1.03-.11h-1.16v1.907zM152.673 48.08h-4.56v-22.9H152.672" fill="#FFF"/></svg>